<svg id="Componente_162_1" data-name="Componente 162 – 1" xmlns="http://www.w3.org/2000/svg" width="32" height="32" viewBox="0 0 32 32">
  <circle id="Elipse_372" data-name="Elipse 372" cx="16" cy="16" r="16" fill="#0e3269"/>
  <g id="_216660_link_icon" data-name="216660_link_icon" transform="translate(9 9)">
    <path id="Trazado_8099" data-name="Trazado 8099" d="M5.493,11.9l-.759.754a1.7,1.7,0,0,1-2.386,0,1.65,1.65,0,0,1,0-2.347L5.142,7.536C5.721,6.962,6.811,6.116,7.6,6.9a.929.929,0,1,0,1.31-1.319C7.565,4.246,5.57,4.493,3.833,6.217L1.039,8.989a3.508,3.508,0,0,0,0,4.985,3.563,3.563,0,0,0,5,0l.76-.754A.929.929,0,0,0,5.493,11.9ZM13.96,1.133A3.32,3.32,0,0,0,9.142.948L8.2,1.887a.929.929,0,1,0,1.31,1.319l.946-.939a1.505,1.505,0,0,1,2.2.185,1.65,1.65,0,0,1,0,2.347L9.671,7.756c-1.363,1.352-2,.718-2.275.447a.929.929,0,1,0-1.31,1.319,2.931,2.931,0,0,0,2.089.929A4.093,4.093,0,0,0,10.98,9.075L13.96,6.118a3.508,3.508,0,0,0,0-4.985Z" transform="translate(0 0)" fill="#fff"/>
  </g>
</svg>
