<svg id="Group_21675" data-name="Group 21675" xmlns="http://www.w3.org/2000/svg" width="33" height="33" viewBox="0 0 33 33">
  <circle id="Ellipse_323" data-name="Ellipse 323" cx="16.5" cy="16.5" r="16.5" fill="#fff"/>
  <g id="facebook-logo" transform="translate(12 9)">
    <path id="Path_2045" data-name="Path 2045" d="M30.4,0,28.327,0a3.644,3.644,0,0,0-3.837,3.938V5.753H22.4a.326.326,0,0,0-.326.326V8.71a.326.326,0,0,0,.326.326h2.086v6.637a.326.326,0,0,0,.326.326h2.722a.326.326,0,0,0,.326-.326V9.036H30.3a.326.326,0,0,0,.326-.326V6.08a.326.326,0,0,0-.326-.326h-2.44V4.214c0-.74.176-1.115,1.14-1.115h1.4a.326.326,0,0,0,.326-.326V.33A.326.326,0,0,0,30.4,0Z" transform="translate(-22.077)" fill="#092145"/>
  </g>
</svg>
