<svg id="Component_143_67" data-name="Component 143 – 67" xmlns="http://www.w3.org/2000/svg" width="33" height="33" viewBox="0 0 33 33">
  <path id="Path_7972" data-name="Path 7972" d="M16.5,0A16.5,16.5,0,1,1,0,16.5,16.5,16.5,0,0,1,16.5,0Z" fill="#fff"/>
  <g id="Instagram_simple_icon" transform="translate(2.922 3.921)">
    <path id="Path_7802" data-name="Path 7802" d="M13.079,5.7c2.4,0,2.688.009,3.637.052a4.98,4.98,0,0,1,1.671.31,2.981,2.981,0,0,1,1.708,1.708,4.979,4.979,0,0,1,.31,1.671c.043.949.052,1.234.052,3.637s-.009,2.688-.052,3.637a4.981,4.981,0,0,1-.31,1.671A2.98,2.98,0,0,1,18.387,20.1a4.979,4.979,0,0,1-1.671.31c-.949.043-1.233.052-3.637.052s-2.688-.009-3.637-.052a4.981,4.981,0,0,1-1.671-.31,2.981,2.981,0,0,1-1.708-1.708,4.979,4.979,0,0,1-.31-1.671c-.043-.949-.052-1.234-.052-3.637s.009-2.688.052-3.637a4.98,4.98,0,0,1,.31-1.671A2.981,2.981,0,0,1,7.771,6.063a4.979,4.979,0,0,1,1.671-.31c.949-.043,1.234-.052,3.637-.052m0-1.622c-2.444,0-2.751.01-3.711.054a6.606,6.606,0,0,0-2.185.418A4.6,4.6,0,0,0,4.551,7.184a6.607,6.607,0,0,0-.418,2.185c-.044.96-.054,1.266-.054,3.711s.01,2.751.054,3.711a6.606,6.606,0,0,0,.418,2.185,4.6,4.6,0,0,0,2.632,2.632,6.606,6.606,0,0,0,2.185.418c.96.044,1.266.054,3.711.054s2.751-.01,3.711-.054a6.606,6.606,0,0,0,2.185-.418,4.6,4.6,0,0,0,2.632-2.632,6.606,6.606,0,0,0,.418-2.185c.044-.96.054-1.266.054-3.711s-.01-2.751-.054-3.711a6.606,6.606,0,0,0-.418-2.185,4.6,4.6,0,0,0-2.632-2.632,6.607,6.607,0,0,0-2.185-.418c-.96-.044-1.266-.054-3.711-.054h0Z" fill="#092145"/>
    <path id="Path_7803" data-name="Path 7803" d="M131.257,126.635a4.622,4.622,0,1,0,4.622,4.622A4.622,4.622,0,0,0,131.257,126.635Zm0,7.622a3,3,0,1,1,3-3,3,3,0,0,1-3,3Z" transform="translate(-118.178 -118.178)" fill="#092145"/>
    <circle id="Ellipse_334" data-name="Ellipse 334" cx="1.08" cy="1.08" r="1.08" transform="translate(16.803 7.195)" fill="#092145"/>
  </g>
</svg>
