<svg id="iconfinder_LinkedIn_570628" xmlns="http://www.w3.org/2000/svg" width="36" height="36" viewBox="0 0 36 36">
  <circle id="Ellipse_478" data-name="Ellipse 478" cx="13.5" cy="13.5" r="13.5" transform="translate(2.965 3.974)" fill="#5ab251"/>
  <path id="Path_2453" data-name="Path 2453" d="M25.1,7.1a18,18,0,1,0,18,18A18,18,0,0,0,25.1,7.1Zm-4.957,25H16.249V20.389h3.892ZM18.2,18.791h-.026a2.029,2.029,0,1,1,.051-4.047,2.03,2.03,0,1,1-.025,4.047ZM34.178,32.1H30.286V25.834c0-1.574-.563-2.648-1.972-2.648a2.131,2.131,0,0,0-2,1.424,2.664,2.664,0,0,0-.129.949V32.1H22.295s.052-10.61,0-11.709h3.893v1.66A3.866,3.866,0,0,1,29.7,20.114c2.562,0,4.482,1.673,4.483,5.27V32.1Z" transform="translate(-7.098 -7.098)" fill="#fff"/>
</svg>
