<svg xmlns="http://www.w3.org/2000/svg" width="213.002" height="30.376" viewBox="0 0 213.002 30.376">
  <g id="Group_21124" data-name="Group 21124" transform="translate(-100.268 -29.528)">
    <path id="Path_7998" data-name="Path 7998" d="M1.134,10.752H21.167v4.731H13.924V35.027H8.345V15.483H1.134Zm27.048,24.8a9.908,9.908,0,0,1-3.817-.7,8.393,8.393,0,0,1-2.888-1.941A8.55,8.55,0,0,1,19.65,30a10.546,10.546,0,0,1,.016-7.26,8.857,8.857,0,0,1,1.827-2.92A8.372,8.372,0,0,1,24.3,17.881a9.755,9.755,0,0,1,6.966-.114A8.474,8.474,0,0,1,33.892,19.4a8.558,8.558,0,0,1,2.153,3.556,14.615,14.615,0,0,1,.653,4.7H24.038a5.383,5.383,0,0,0,1.305,3.067,3.794,3.794,0,0,0,2.9,1.109,3.93,3.93,0,0,0,1.974-.44,3.019,3.019,0,0,0,1.191-1.256h4.959a7.048,7.048,0,0,1-1.028,2.137A7.252,7.252,0,0,1,33.615,34a8.03,8.03,0,0,1-2.4,1.142A10.611,10.611,0,0,1,28.182,35.549ZM27.921,20.8a3.365,3.365,0,0,0-2.675,1.044,5.387,5.387,0,0,0-1.175,2.839h7.406A4.56,4.56,0,0,0,30.4,21.829,3.212,3.212,0,0,0,27.921,20.8ZM47.6,35.581a9.7,9.7,0,0,1-3.768-.7,8.429,8.429,0,0,1-2.871-1.941,8.722,8.722,0,0,1-1.843-2.92,9.963,9.963,0,0,1-.653-3.638,10.19,10.19,0,0,1,.636-3.638,8.644,8.644,0,0,1,1.811-2.92,8.294,8.294,0,0,1,2.839-1.941,9.487,9.487,0,0,1,3.72-.7,9.763,9.763,0,0,1,3.132.473,7.58,7.58,0,0,1,2.431,1.321,6.943,6.943,0,0,1,1.68,2.039,8.044,8.044,0,0,1,.881,2.594H50.63A3.459,3.459,0,0,0,49.586,21.7,2.964,2.964,0,0,0,47.53,21a3.254,3.254,0,0,0-2.92,1.468,7.05,7.05,0,0,0-.963,3.915,6.916,6.916,0,0,0,.963,3.85A3.254,3.254,0,0,0,47.53,31.7a3.1,3.1,0,0,0,2.268-.816,3.684,3.684,0,0,0,1-2.317H55.72a7.187,7.187,0,0,1-.669,2.757A6.98,6.98,0,0,1,53.4,33.559a7.546,7.546,0,0,1-2.529,1.485A9.558,9.558,0,0,1,47.6,35.581ZM58.1,17.669h4.927v2.48h.1a5.755,5.755,0,0,1,5.286-2.969,6.939,6.939,0,0,1,3.116.685,6.77,6.77,0,0,1,2.349,1.909,8.928,8.928,0,0,1,1.485,2.9,12.321,12.321,0,0,1,.522,3.671,12.756,12.756,0,0,1-.538,3.834,8.394,8.394,0,0,1-1.533,2.9A6.818,6.818,0,0,1,71.4,34.929a7.448,7.448,0,0,1-3.149.653,6.29,6.29,0,0,1-3.051-.718,5.287,5.287,0,0,1-2.072-1.99h-.065q.065.489.114,1.436t.049,2.349V40.8H58.1ZM67.041,31.6a3.093,3.093,0,0,0,2.708-1.37,6.45,6.45,0,0,0,.946-3.72,7.05,7.05,0,0,0-.914-3.8,3.084,3.084,0,0,0-2.806-1.452,3.47,3.47,0,0,0-1.713.408,3.559,3.559,0,0,0-1.224,1.126,5.267,5.267,0,0,0-.734,1.664,8.193,8.193,0,0,0-.245,2.056,6.181,6.181,0,0,0,1.011,3.671A3.414,3.414,0,0,0,67.041,31.6Zm19.772,3.948a9.908,9.908,0,0,1-3.817-.7,8.393,8.393,0,0,1-2.888-1.941A8.55,8.55,0,0,1,78.282,30a10.546,10.546,0,0,1,.016-7.26,8.857,8.857,0,0,1,1.827-2.92,8.372,8.372,0,0,1,2.806-1.941,9.755,9.755,0,0,1,6.966-.114,7.78,7.78,0,0,1,4.78,5.188,14.615,14.615,0,0,1,.653,4.7H82.67a5.383,5.383,0,0,0,1.305,3.067,3.794,3.794,0,0,0,2.9,1.109,3.93,3.93,0,0,0,1.974-.44,3.019,3.019,0,0,0,1.191-1.256H95a7.049,7.049,0,0,1-1.028,2.137A7.252,7.252,0,0,1,92.246,34a8.03,8.03,0,0,1-2.4,1.142A10.612,10.612,0,0,1,86.814,35.549ZM86.553,20.8a3.365,3.365,0,0,0-2.675,1.044A5.387,5.387,0,0,0,82.7,24.684h7.406a4.56,4.56,0,0,0-1.077-2.855A3.212,3.212,0,0,0,86.553,20.8Zm10.017-3.132h2.61V12.122H104.2v5.547H107.6v3.263H104.2v8.614a1.491,1.491,0,0,0,.506,1.321,2.512,2.512,0,0,0,1.419.343q.261,0,.587-.016t.587-.049h.261v3.817q-.424.065-1.175.163a14.123,14.123,0,0,1-1.795.1,10.586,10.586,0,0,1-2.2-.212,4.31,4.31,0,0,1-1.713-.75,3.547,3.547,0,0,1-1.109-1.4,5.36,5.36,0,0,1-.392-2.2V20.932h-2.61Zm18.63,3.1h.1a6.135,6.135,0,0,1,2.023-2.61,4.941,4.941,0,0,1,2.806-.783,3,3,0,0,1,1.077.131v4.47h-.131a6.192,6.192,0,0,0-1.077-.1,4.356,4.356,0,0,0-3.344,1.256,5.286,5.286,0,0,0-1.256,3.834v8.059h-5.122V17.669H115.2Zm16.509,14.813a9.818,9.818,0,0,1-3.785-.7,8.452,8.452,0,0,1-4.764-4.861,10.467,10.467,0,0,1,0-7.276,8.452,8.452,0,0,1,4.764-4.861,10.473,10.473,0,0,1,7.537,0,8.393,8.393,0,0,1,2.888,1.941,8.722,8.722,0,0,1,1.843,2.92,10.467,10.467,0,0,1,0,7.276,8.722,8.722,0,0,1-1.843,2.92,8.393,8.393,0,0,1-2.888,1.941A9.729,9.729,0,0,1,131.709,35.581Zm-.033-3.72a3.351,3.351,0,0,0,2.953-1.517,6.941,6.941,0,0,0,1.028-3.964,7.085,7.085,0,0,0-1.028-4.013,3.625,3.625,0,0,0-5.922,0,7.173,7.173,0,0,0-1.011,4.013,7.026,7.026,0,0,0,1.011,3.964A3.341,3.341,0,0,0,131.676,31.862Zm11.811-21.11h5.155V35.027h-5.155Z" transform="translate(99.134 18.95)" fill="#fff"/>
    <path id="Path_7999" data-name="Path 7999" d="M3.234-31.248H6.562v10.212H19.091V-31.248h3.361V-6.973H19.091V-18.328H6.562V-6.973H3.234ZM34.687-6.484A8.556,8.556,0,0,1,31.114-7.2a7.892,7.892,0,0,1-2.692-1.974,8.961,8.961,0,0,1-1.713-2.936,10.585,10.585,0,0,1-.6-3.605,10.488,10.488,0,0,1,.6-3.573,8.961,8.961,0,0,1,1.713-2.936A7.892,7.892,0,0,1,31.114-24.2a8.556,8.556,0,0,1,3.573-.718,8.444,8.444,0,0,1,3.556.718,7.934,7.934,0,0,1,2.675,1.974,8.739,8.739,0,0,1,1.7,2.936,10.751,10.751,0,0,1,.587,3.573,10.851,10.851,0,0,1-.587,3.605,8.739,8.739,0,0,1-1.7,2.936A7.934,7.934,0,0,1,38.243-7.2,8.444,8.444,0,0,1,34.687-6.484Zm-.033-2.48a5.153,5.153,0,0,0,2.365-.522,4.867,4.867,0,0,0,1.713-1.436,6.4,6.4,0,0,0,1.028-2.137,9.833,9.833,0,0,0,.343-2.659,9.885,9.885,0,0,0-.343-2.643,6.567,6.567,0,0,0-1.028-2.17,4.8,4.8,0,0,0-1.713-1.452,5.153,5.153,0,0,0-2.365-.522,5.153,5.153,0,0,0-2.365.522,4.8,4.8,0,0,0-1.713,1.452,6.566,6.566,0,0,0-1.028,2.17,9.884,9.884,0,0,0-.343,2.643,9.833,9.833,0,0,0,.343,2.659,6.4,6.4,0,0,0,1.028,2.137,4.867,4.867,0,0,0,1.713,1.436A5.153,5.153,0,0,0,34.654-8.963ZM48.26-.872a11.22,11.22,0,0,1-1.485-.1,4.11,4.11,0,0,1-1.093-.261v-2.61h.131a2.113,2.113,0,0,0,.767.245,6.655,6.655,0,0,0,1.06.082,2.58,2.58,0,0,0,1.533-.44,3.5,3.5,0,0,0,1.077-1.68,2.942,2.942,0,0,1,.1-.343q.1-.31.228-.7t.228-.75a.963.963,0,0,0,.065-.424l-6.689-16.64h3.3L51.1-14.771q.261.75.522,1.566t.489,1.533q.228.848.457,1.631h.065q.228-.783.489-1.631.228-.718.489-1.533t.522-1.566l3.491-9.723h3.165L53.35-5.374a15.63,15.63,0,0,1-1.093,2.251,5.6,5.6,0,0,1-1.142,1.387,3.289,3.289,0,0,1-1.305.685A6.251,6.251,0,0,1,48.26-.872Z" transform="translate(252.48 60.776)" fill="#fff"/>
  </g>
</svg>
