<svg id="icon_Print" data-name="icon Print" xmlns="http://www.w3.org/2000/svg" width="32" height="32" viewBox="0 0 32 32">
  <circle id="Ellipse_158" data-name="Ellipse 158" cx="16" cy="16" r="16" fill="#3b72e1"/>
  <g id="iconfinder_ic_local_print_shop_48px_352513" transform="translate(7 7)">
    <path id="Path_2545" data-name="Path 2545" d="M16.292,9.525H6.169A2.144,2.144,0,0,0,4,11.641v4.23H6.892v2.82h8.677v-2.82h2.892v-4.23A2.144,2.144,0,0,0,16.292,9.525Zm-2.169,7.756H8.338V13.756h5.784Zm2.169-4.936a.705.705,0,1,1,.723-.705A.712.712,0,0,1,16.292,12.346ZM15.569,6H6.892V8.82h8.677Z" transform="translate(-2.23 -3.346)" fill="#fff"/>
    <path id="Path_2546" data-name="Path 2546" d="M0,0H18V18H0Z" fill="none"/>
  </g>
</svg>
