<svg xmlns="http://www.w3.org/2000/svg" width="356" height="52.414" viewBox="0 0 356 52.414">
  <g id="_22.01_TTLogo" data-name="22.01_TTLogo" transform="translate(-0.02)">
    <path id="Path_8271" data-name="Path 8271" d="M76.31,69.506H64V62.63H97.567v6.876H85.248v34.548H76.31Z" transform="translate(-63.98 -62.397)" fill="#666"/>
    <path id="Path_8272" data-name="Path 8272" d="M169.535,120.23c0,1.889,0,7.735,5.9,7.735,2.119,0,4.239-.8,5.041-4.026h7.735a9.7,9.7,0,0,1-2.752,6.3c-2.119,2.234-5.9,3.379-10.139,3.379-2.464,0-7.163-.457-10.2-3.609-2.634-2.749-3.724-6.646-3.724-11.287,0-4.7,1.15-10.312,6.016-13.694a14.507,14.507,0,0,1,8.135-2.4c4.126,0,9.052,1.6,11.689,6.988,1.947,3.954,1.832,8.193,1.725,10.6Zm10.772-5.328c0-1.317-.115-6.473-5.041-6.473-3.738,0-5.271,3.094-5.444,6.473Z" transform="translate(-133.372 -90.893)" fill="#666"/>
    <path id="Path_8273" data-name="Path 8273" d="M287.859,114.9c-.115-1.029-.46-5.326-3.724-5.326-4.011,0-4.469,6.07-4.469,9.222,0,1.6.17,6.761,2.119,8.88a2.936,2.936,0,0,0,2.3.975c.917,0,3.551-.4,3.894-5.556h8.365c-.115,2.231-.4,5.728-3.724,8.535-2.062,1.777-4.641,2.694-8.25,2.694-3.839,0-7.218-.863-9.852-3.839-2.522-2.922-3.669-6.761-3.669-11.4,0-13.179,9.682-15.011,13.515-15.011,5.386,0,11.747,2.979,11.8,10.827Z" transform="translate(-211.348 -91.921)" fill="#666"/>
    <path id="Path_8274" data-name="Path 8274" d="M373.19,62.83h8.423V79.221a9.342,9.342,0,0,1,8.365-4.354,10.427,10.427,0,0,1,8.423,3.9c1.029,1.438,1.889,4.066,1.889,7.848V104.2h-8.423V86.893c0-1.662,0-6.3-4.753-6.3-2.407,0-5.444,1.375-5.444,5.9l.058,17.705H373.19Z" transform="translate(-284.259 -62.54)" fill="#666"/>
    <path id="Path_8275" data-name="Path 8275" d="M493.13,62.83h9.052v7.39H493.13Zm.288,12.365h8.48v29h-8.48Z" transform="translate(-369.709 -62.54)" fill="#666"/>
    <path id="Path_8276" data-name="Path 8276" d="M549.493,109.238c0-.115,0-3.264-.172-5.271h8.135l.23,4.357c.8-1.32,3.091-5.044,9.395-5.044,5.671,0,8.078,3.451,8.822,5.444.63,1.777.8,3.267.8,8.65v15.643h-8.65V115.024a6.955,6.955,0,0,0-.46-3.163,4.411,4.411,0,0,0-4.124-2.464,5.271,5.271,0,0,0-4.411,2.234,7.891,7.891,0,0,0-1.032,4.411v16.966h-8.535Z" transform="translate(-409.741 -91.358)" fill="#666"/>
    <path id="Path_8277" data-name="Path 8277" d="M679.181,113.3a26.282,26.282,0,0,1-6.588.917c-8.538,0-8.538-5.386-8.538-7.793V90.558H658.5V84.945h5.556V79.271l8.423-3.091v8.765h6.87v5.613h-6.87v13.064c.057,2.634.057,4.3,3.839,4.3a21.316,21.316,0,0,0,2.876-.173Z" transform="translate(-487.525 -72.051)" fill="#666"/>
    <path id="Path_8278" data-name="Path 8278" d="M766.451,68.7H754.12V61.82h33.573V68.7H775.365v34.548h-8.914Z" transform="translate(-555.649 -61.82)" fill="#5ab251"/>
    <path id="Path_8279" data-name="Path 8279" d="M866.5,102.87c10.484,0,15.011,7.1,15.011,15.18,0,8.135-4.7,15.471-15.183,15.471-8.25,0-14.781-5.1-14.781-15.241C851.55,111.29,855.1,102.87,866.5,102.87Zm.115,24.75c3.724,0,6.246-2.234,6.246-9.912,0-3.839-.745-9.167-6.361-9.167-6.188,0-6.246,7.16-6.246,9.8,0,6.473,2.18,9.282,6.375,9.282Z" transform="translate(-625.062 -91.066)" fill="#5ab251"/>
    <path id="Path_8280" data-name="Path 8280" d="M992.594,62h8.538V98.673c0,1.725.112,3.609.227,4.7h-8.6l-.23-4.181a7.831,7.831,0,0,1-2.922,3.264,10.13,10.13,0,0,1-5.616,1.49c-7.732,0-12.316-5.328-12.316-14.378,0-9.57,5.214-15.528,12.776-15.528a9.272,9.272,0,0,1,8.135,3.954Zm-6.473,36.445a6.116,6.116,0,0,0,5.383-3.267,15.385,15.385,0,0,0,1.378-6.818c0-5.671-2.464-8.765-6.3-8.765-5.671,0-6.3,6.818-6.3,9.74C980.275,94.146,981.88,98.445,986.121,98.445Z" transform="translate(-710.647 -61.948)" fill="#5ab251"/>
    <path id="Path_8281" data-name="Path 8281" d="M1113.725,132.061a23.08,23.08,0,0,1-.288-3.954c-3.209,4.641-7.048,4.641-8.653,4.641-4.181,0-6.07-1.2-7.218-2.3a8.949,8.949,0,0,1-2.519-6.358c0-2.3.8-6.533,6.128-8.995,3.554-1.6,8.653-1.6,11.459-1.6a11.357,11.357,0,0,0-.4-3.839,3.922,3.922,0,0,0-3.781-2.407,3.862,3.862,0,0,0-3.209,1.6,4.366,4.366,0,0,0-.63,2.588H1096.3a8.11,8.11,0,0,1,3.264-6.818c2.637-1.892,6.016-2.349,8.768-2.349,2.407,0,7.448.4,10.312,3.738,1.947,2.349,2.013,5.786,2.013,7.1l.057,11.632a35,35,0,0,0,.687,7.333Zm-10.427-8.937a3.989,3.989,0,0,0,4.124,4.124,4.8,4.8,0,0,0,3.609-1.659c1.49-1.835,1.6-4.069,1.6-7.163-5.452-.457-9.346,1.262-9.346,4.7Z" transform="translate(-798.538 -90.638)" fill="#5ab251"/>
    <path id="Path_8282" data-name="Path 8282" d="M1205.419,105.246l6.358,20.054,6.476-20.052h8.414l-10.927,28.417-3.494,11.5h-8.538l3.666-10.884L1196.26,105.24Z" transform="translate(-870.647 -92.754)" fill="#5ab251"/>
  </g>
</svg>
