<svg id="Componente_160_1" data-name="Componente 160 – 1" xmlns="http://www.w3.org/2000/svg" width="32" height="32" viewBox="0 0 32 32">
  <circle id="Elipse_373" data-name="Elipse 373" cx="16" cy="16" r="16" fill="#0e3269"/>
  <g id="picture_as_pdf_black_24dp" transform="translate(7 7)">
    <path id="Trazado_8139" data-name="Trazado 8139" d="M0,0H18V18H0Z" fill="none"/>
    <path id="Trazado_8140" data-name="Trazado 8140" d="M15.517,2H6.506A1.506,1.506,0,0,0,5,3.5v9.011a1.506,1.506,0,0,0,1.5,1.5h9.011a1.506,1.506,0,0,0,1.5-1.5V3.5A1.506,1.506,0,0,0,15.517,2ZM9.134,7.632A1.125,1.125,0,0,1,8.007,8.758H7.256v1.5H6.13V5.755H8.007A1.125,1.125,0,0,1,9.134,6.881Zm3.755,1.5a1.125,1.125,0,0,1-1.126,1.126H9.885V5.755h1.877a1.125,1.125,0,0,1,1.126,1.126Zm3-2.253H14.766v.751h1.126V8.758H14.766v1.5H13.639V5.755h2.253Zm-8.636.751h.751V6.881H7.256ZM3.5,5H2V15.517a1.506,1.506,0,0,0,1.5,1.5H14.015v-1.5H3.5Zm7.509,4.13h.751V6.881h-.751Z" transform="translate(-0.509 -0.509)" fill="#fff"/>
  </g>
</svg>
