<svg xmlns="http://www.w3.org/2000/svg" width="56" height="56" viewBox="0 0 56 56">
  <g id="Group_21091" data-name="Group 21091" transform="translate(18686 -332)">
    <rect id="Rectangle_56352" data-name="Rectangle 56352" width="56" height="56" rx="28" transform="translate(-18686 332)" fill="#fff"/>
    <path id="Path_7744" data-name="Path 7744" d="M13.105,15.895a3.459,3.459,0,0,0,3.462-3.474l.012-6.947a3.474,3.474,0,1,0-6.947,0v6.947A3.469,3.469,0,0,0,13.105,15.895Zm6.137-3.474a6.008,6.008,0,0,1-6.137,5.905,6.008,6.008,0,0,1-6.137-5.905H5A8.086,8.086,0,0,0,11.947,20.2V24h2.316V20.2a8.068,8.068,0,0,0,6.947-7.781Z" transform="translate(-18670.594 348.214)" fill="#1ebe5a"/>
  </g>
</svg>
