<svg xmlns="http://www.w3.org/2000/svg" width="158.539" height="23.342" viewBox="0 0 158.539 23.342">
  <g id="_22.01_TTLogo" data-name="22.01_TTLogo" transform="translate(-0.02)">
    <path id="Path_8271" data-name="Path 8271" d="M69.482,65.692H64V62.63H78.948v3.062H73.462V81.077h-3.98Z" transform="translate(-63.98 -62.526)" fill="#fff"/>
    <path id="Path_8272" data-name="Path 8272" d="M165.023,110.467c0,.841,0,3.445,2.629,3.445a2.111,2.111,0,0,0,2.245-1.793h3.445a4.318,4.318,0,0,1-1.226,2.807,6.264,6.264,0,0,1-4.515,1.5,6.412,6.412,0,0,1-4.542-1.607A7.012,7.012,0,0,1,161.4,109.8c0-2.093.512-4.592,2.679-6.1a6.461,6.461,0,0,1,3.623-1.071,5.532,5.532,0,0,1,5.206,3.112,9.62,9.62,0,0,1,.768,4.72Zm4.8-2.373c0-.587-.051-2.883-2.245-2.883-1.665,0-2.347,1.378-2.424,2.883Z" transform="translate(-148.907 -97.402)" fill="#fff"/>
    <path id="Path_8273" data-name="Path 8273" d="M278.425,108.891c-.051-.458-.2-2.372-1.658-2.372-1.786,0-1.99,2.7-1.99,4.107,0,.715.076,3.011.944,3.954a1.308,1.308,0,0,0,1.025.434c.408,0,1.582-.178,1.734-2.474H282.2a4.882,4.882,0,0,1-1.658,3.8,5.3,5.3,0,0,1-3.674,1.2,5.437,5.437,0,0,1-4.387-1.71,7.5,7.5,0,0,1-1.634-5.078c0-5.869,4.312-6.685,6.019-6.685,2.4,0,5.231,1.327,5.257,4.821Z" transform="translate(-244.341 -98.659)" fill="#fff"/>
    <path id="Path_8274" data-name="Path 8274" d="M373.19,62.83h3.751v7.3a4.16,4.16,0,0,1,3.725-1.939,4.643,4.643,0,0,1,3.751,1.735,6.157,6.157,0,0,1,.841,3.495v7.833h-3.751V73.546c0-.74,0-2.807-2.117-2.807a2.349,2.349,0,0,0-2.424,2.628l.026,7.885h-3.8Z" transform="translate(-333.575 -62.701)" fill="#fff"/>
    <path id="Path_8275" data-name="Path 8275" d="M493.13,62.83h4.031v3.291H493.13Zm.128,5.507h3.776V81.251h-3.776Z" transform="translate(-438.156 -62.701)" fill="#fff"/>
    <path id="Path_8276" data-name="Path 8276" d="M549.4,105.933c0-.051,0-1.453-.077-2.347h3.623l.1,1.94a4.458,4.458,0,0,1,4.184-2.246,3.925,3.925,0,0,1,3.929,2.424,10.681,10.681,0,0,1,.357,3.852v6.966h-3.852V108.51a3.1,3.1,0,0,0-.2-1.409,1.964,1.964,0,0,0-1.836-1.1,2.347,2.347,0,0,0-1.964,1,3.514,3.514,0,0,0-.46,1.964v7.556h-3.8Z" transform="translate(-487.15 -97.971)" fill="#fff"/>
    <path id="Path_8277" data-name="Path 8277" d="M667.71,92.713a11.7,11.7,0,0,1-2.934.409c-3.8,0-3.8-2.4-3.8-3.47V82.583H658.5v-2.5h2.474V77.557l3.751-1.377v3.9h3.059v2.5h-3.059V88.4c.026,1.173.026,1.913,1.71,1.913a9.5,9.5,0,0,0,1.281-.077Z" transform="translate(-582.348 -74.341)" fill="#fff"/>
    <path id="Path_8278" data-name="Path 8278" d="M759.611,64.882H754.12V61.82h14.951v3.062h-5.49V80.267h-3.97Z" transform="translate(-665.723 -61.82)" fill="#5ab251"/>
    <path id="Path_8279" data-name="Path 8279" d="M858.209,102.87c4.669,0,6.685,3.163,6.685,6.76,0,3.623-2.092,6.89-6.762,6.89-3.674,0-6.582-2.271-6.582-6.787C851.55,106.62,853.132,102.87,858.209,102.87Zm.051,11.022c1.658,0,2.781-1,2.781-4.414,0-1.71-.332-4.083-2.833-4.083-2.756,0-2.781,3.189-2.781,4.363,0,2.883.971,4.134,2.839,4.134Z" transform="translate(-750.676 -97.613)" fill="#5ab251"/>
    <path id="Path_8280" data-name="Path 8280" d="M980.994,62h3.8V78.332c0,.768.05,1.607.1,2.093h-3.828l-.1-1.862a3.488,3.488,0,0,1-1.3,1.453,4.511,4.511,0,0,1-2.5.663c-3.444,0-5.485-2.373-5.485-6.4,0-4.262,2.322-6.915,5.69-6.915a4.129,4.129,0,0,1,3.623,1.761Zm-2.883,16.23a2.724,2.724,0,0,0,2.4-1.455,6.852,6.852,0,0,0,.613-3.036c0-2.525-1.1-3.9-2.807-3.9-2.525,0-2.807,3.036-2.807,4.337C975.508,76.316,976.222,78.23,978.111,78.23Z" transform="translate(-855.422 -61.977)" fill="#5ab251"/>
    <path id="Path_8281" data-name="Path 8281" d="M1103.365,115.537a10.283,10.283,0,0,1-.128-1.761,4.29,4.29,0,0,1-3.853,2.067,4.237,4.237,0,0,1-3.214-1.024,3.985,3.985,0,0,1-1.122-2.831,4.279,4.279,0,0,1,2.729-4.006,13.454,13.454,0,0,1,5.1-.715,5.055,5.055,0,0,0-.178-1.71,1.746,1.746,0,0,0-1.684-1.072,1.72,1.72,0,0,0-1.429.715,1.944,1.944,0,0,0-.281,1.153h-3.7a3.611,3.611,0,0,1,1.453-3.036,6.733,6.733,0,0,1,3.9-1.046c1.072,0,3.317.178,4.592,1.665a5.1,5.1,0,0,1,.9,3.163l.026,5.18a15.592,15.592,0,0,0,.306,3.266Zm-4.644-3.98a1.776,1.776,0,0,0,1.836,1.836,2.14,2.14,0,0,0,1.607-.739,4.734,4.734,0,0,0,.715-3.19c-2.428-.2-4.162.562-4.162,2.092Z" transform="translate(-962.99 -97.09)" fill="#5ab251"/>
    <path id="Path_8282" data-name="Path 8282" d="M1200.339,105.243l2.831,8.931,2.884-8.93h3.747l-4.866,12.655-1.556,5.122h-3.8l1.633-4.847-4.949-12.934Z" transform="translate(-1051.242 -99.68)" fill="#5ab251"/>
  </g>
</svg>
