<svg id="Componente_161_1" data-name="Componente 161 – 1" xmlns="http://www.w3.org/2000/svg" width="32" height="32" viewBox="0 0 32 32">
  <circle id="Elipse_158" data-name="Elipse 158" cx="16" cy="16" r="16" fill="#0e3269"/>
  <g id="_7676379_social_media_yammer_icon" data-name="7676379_social_media_yammer_icon" transform="translate(8 10)">
    <path id="Trazado_8095" data-name="Trazado 8095" d="M8.076,1.915A.916.916,0,0,0,7.6,1.8a1.049,1.049,0,0,0-1.05.787C6.19,3.606,5.788,4.636,5.4,5.629l-.49,1.248-.484,1.3C3.689,6.3,2.909,4.38,2.161,2.508a1.251,1.251,0,0,0-.629-.724,1.119,1.119,0,0,0-.911.006,1,1,0,0,0-.572.524,1.241,1.241,0,0,0,.057.949l3.143,7.709c-.415,1.092-.71,1.654-1.8,1.579a1.094,1.094,0,0,0-.735.137.991.991,0,0,0-.465.849.954.954,0,0,0,.471.83,2.359,2.359,0,0,0,1.119.187H2c2.08-.037,2.678-1.561,3.256-3.034L8.522,3.257a1.008,1.008,0,0,0-.446-1.342Z" transform="translate(0.019 -1.69)" fill="#fff"/>
    <path id="Trazado_8096" data-name="Trazado 8096" d="M13.355,7.545a.465.465,0,0,0,.409.189,1.018,1.018,0,0,0,.283-.044,19.8,19.8,0,0,0,4.092-1.76,1.081,1.081,0,0,0,.195-1.295,1.056,1.056,0,0,0-1.188-.478,19.062,19.062,0,0,0-3.62,2.684C13.223,7.187,13.279,7.42,13.355,7.545Z" transform="translate(-4.03 -2.592)" fill="#fff"/>
    <path id="Trazado_8097" data-name="Trazado 8097" d="M19.934,10.609a13.864,13.864,0,0,0-4.079.39c-.3.075-.748.195-.786.629s.409.465.786.572a18.793,18.793,0,0,0,3.545.434,2.074,2.074,0,0,0,.528-.044,1.025,1.025,0,0,0,0-1.98Z" transform="translate(-4.688 -5.029)" fill="#fff"/>
    <path id="Trazado_8098" data-name="Trazado 8098" d="M14.031,14.673c-.182-.031-.528-.094-.685.176s.044.566.157.7a20.576,20.576,0,0,0,3.62,2.684,1.257,1.257,0,0,0,.277.031,1.025,1.025,0,0,0,.911-.522,1.069,1.069,0,0,0-.195-1.257A17.216,17.216,0,0,0,14.031,14.673Z" transform="translate(-4.027 -6.59)" fill="#fff"/>
  </g>
</svg>
