<svg id="Component_208_1" data-name="Component 208 – 1" xmlns="http://www.w3.org/2000/svg" width="36" height="36" viewBox="0 0 36 36">
  <circle id="Ellipse_319" data-name="Ellipse 319" cx="18" cy="18" r="18" fill="#fff"/>
  <g id="g5" transform="translate(9 12)">
    <path id="Exclusion_3" data-name="Exclusion 3" d="M8.723,12.047A52.051,52.051,0,0,1,1.9,11.678,2.172,2.172,0,0,1,.359,10.161,22.452,22.452,0,0,1,0,6.023,22.542,22.542,0,0,1,.359,1.885,2.221,2.221,0,0,1,1.9.355,53.976,53.976,0,0,1,8.723,0,51.931,51.931,0,0,1,15.55.369a2.17,2.17,0,0,1,1.537,1.516,21.5,21.5,0,0,1,.36,4.152,22.5,22.5,0,0,1-.36,4.138,2.17,2.17,0,0,1-1.537,1.517A53.989,53.989,0,0,1,8.723,12.047Zm-1.738-8.6V8.6l4.541-2.579L6.985,3.444Z" fill="#5ab251"/>
  </g>
</svg>
